<?xml version="1.0" encoding="iso-8859-1"?>
<!-- Uploaded to: SVG Repo, www.svgrepo.com, Generator: SVG Repo Mixer Tools -->
<svg version="1.1" id="Layer_1" xmlns="http://www.w3.org/2000/svg" xmlns:xlink="http://www.w3.org/1999/xlink" 
	 viewBox="0 0 512 512" xml:space="preserve">
<circle style="fill:#FC6F58;" cx="256" cy="256" r="256"/>
<path style="fill:#F1543F;" d="M270.455,511.586c103.51-5.763,190.598-73.014,225.354-165.835L356.321,206.264l-11.816,18.072
	l-79.455-79.741l-20.077,47.407L85.332,326.466L270.455,511.586z"/>
<path style="fill:#E6F3FF;" d="M113.778,307.071c0-78.546,63.676-142.222,142.222-142.222s142.222,63.676,142.222,142.222H113.778z"
	/>
<path style="fill:#CFDBE6;" d="M256.288,164.855v142.215h141.934C398.222,228.619,334.701,165.012,256.288,164.855z"/>
<rect x="85.333" y="298.012" style="fill:#324A5E;" width="341.333" height="28.444"/>
<rect x="256.293" y="298.012" style="fill:#2B3B4E;" width="170.374" height="28.444"/>
<path style="fill:#FF6472;" d="M219.798,232.253c0-9.997,8.104-18.099,18.101-18.099S256,222.258,256,232.253
	c0-9.997,8.104-18.099,18.101-18.099s18.101,8.104,18.101,18.099c0,17.308-36.202,38.009-36.202,38.009
	S219.798,250.537,219.798,232.253z"/>
<path style="fill:#C75163;" d="M292.202,232.253c0-9.997-8.104-18.099-18.101-18.099c-8.93,0-16.331,6.472-17.813,14.976v40.967
	C259.57,268.178,292.202,248.692,292.202,232.253z"/>
<circle style="fill:#CFDBE6;" cx="256" cy="152.566" r="12.067"/>
<path style="fill:#B8C9D9;" d="M268.067,152.566c0-6.568-5.249-11.898-11.779-12.054v24.105
	C262.818,164.464,268.067,159.134,268.067,152.566z"/>
</svg>